<?xml version="1.0" encoding="UTF-8"?><svg id="Layer_3" xmlns="http://www.w3.org/2000/svg" viewBox="0 0 117.88 33.41"><defs><style>.cls-1{fill:#5b5a5a;}.cls-2{fill:#3a3a3a;}</style></defs><g><path class="cls-2" d="M19.56,4.41H0v5.4H16.5L6.53,33.01h6.38L21.71,12.22c.5-1.2,1.07-2.15,1.4-3.3,.65-2.27-1.18-4.51-3.55-4.51Z"/><path class="cls-2" d="M49.56,20.91c.11-.46,.25-1.03,.25-2.64,0-7.81-5.62-13.48-13.36-13.48-8.2,0-13.3,5.48-13.3,14.31s5.28,14.31,13.77,14.31c6.25,0,10.9-3.4,12.75-9.33l.14-.44h-6.37l-.1,.18c-1.56,2.84-3.6,4.16-6.42,4.16-3.99,0-6.79-2.45-7.56-6.58h20.08l.11-.5Zm-20.14-4.34c.71-4.03,3.26-6.34,7.04-6.34,4.41,0,6.93,3.63,7.13,6.34h-14.17Z"/><path class="cls-2" d="M66.48,4.79c-3.02,0-5.66,1.13-7.69,3.29v-2.7h-5.91v27.42h5.91v-14.3c0-5.26,2.45-8.28,6.73-8.28s6.62,2.94,6.62,8.28v14.3h5.91v-15.73c0-8.07-5.82-12.29-11.57-12.29Z"/></g><g><path class="cls-1" d="M83.56,.13h3.09c2.56,0,4.33,1.79,4.33,4.58s-1.73,4.74-4.34,4.74h-3.08V.13Zm.72,8.66h2.25c2.46,0,3.68-1.73,3.68-4.04,0-2.05-1.09-3.96-3.68-3.96h-2.25v7.99Z"/><path class="cls-1" d="M100.86,4.73c0,2.54-1.36,4.86-4.23,4.86-2.62,0-4.16-2.12-4.16-4.79s1.48-4.8,4.25-4.8c2.56,0,4.14,2.01,4.14,4.73Zm-7.62,.03c0,2.14,1.19,4.17,3.42,4.17,2.41,0,3.42-1.97,3.42-4.18s-1.15-4.08-3.4-4.08c-2.4,0-3.45,1.98-3.45,4.09Z"/><path class="cls-1" d="M109.95,6.97c-.44,1.48-1.53,2.6-3.5,2.6-2.68,0-4.09-2.13-4.09-4.75s1.38-4.81,4.1-4.81c2.01,0,3.2,1.12,3.5,2.68h-.72c-.43-1.21-1.21-2.01-2.82-2.01-2.32,0-3.29,2.12-3.29,4.13s.96,4.1,3.34,4.1c1.52,0,2.29-.79,2.76-1.93h.72Z"/><path class="cls-1" d="M112.11,6.95c.28,1.24,1.11,1.97,2.64,1.97,1.7,0,2.36-.85,2.36-1.87s-.47-1.7-2.52-2.21c-1.97-.49-2.82-1.13-2.82-2.48,0-1.22,.89-2.37,2.89-2.37s2.92,1.25,3.04,2.38h-.75c-.21-1-.87-1.72-2.33-1.72-1.35,0-2.08,.63-2.08,1.67s.61,1.42,2.33,1.85c2.62,.65,3.01,1.7,3.01,2.82,0,1.37-1,2.56-3.16,2.56-2.33,0-3.18-1.36-3.36-2.61h.75Z"/></g></svg>