<?xml version="1.0" encoding="utf-8"?>
<!-- Generator: Adobe Illustrator 27.0.0, SVG Export Plug-In . SVG Version: 6.00 Build 0)  -->
<svg version="1.1" id="Layer_3" xmlns="http://www.w3.org/2000/svg" xmlns:xlink="http://www.w3.org/1999/xlink" x="0px" y="0px"
	 viewBox="0 0 117.9 33.4" style="enable-background:new 0 0 117.9 33.4;" xml:space="preserve">
<style type="text/css">
	.st0{fill:#5B5A5A;}
	.st1{fill:#0E1215;}
</style>
<g>
	<path class="st0" d="M83.6,0.1h3.1c2.6,0,4.3,1.8,4.3,4.6s-1.7,4.7-4.3,4.7h-3.1V0.1z M84.3,8.8h2.2c2.5,0,3.7-1.7,3.7-4
		c0-2-1.1-4-3.7-4h-2.2V8.8L84.3,8.8z"/>
	<path class="st0" d="M100.9,4.7c0,2.5-1.4,4.9-4.2,4.9c-2.6,0-4.2-2.1-4.2-4.8S94,0,96.7,0C99.3,0,100.9,2,100.9,4.7z M93.2,4.8
		c0,2.1,1.2,4.2,3.4,4.2c2.4,0,3.4-2,3.4-4.2s-1.2-4.1-3.4-4.1C94.3,0.7,93.2,2.7,93.2,4.8L93.2,4.8z"/>
	<path class="st0" d="M109.9,7c-0.4,1.5-1.5,2.6-3.5,2.6c-2.7,0-4.1-2.1-4.1-4.8s1.4-4.8,4.1-4.8c2,0,3.2,1.1,3.5,2.7h-0.7
		c-0.4-1.2-1.2-2-2.8-2c-2.3,0-3.3,2.1-3.3,4.1s1,4.1,3.3,4.1c1.5,0,2.3-0.8,2.8-1.9L109.9,7L109.9,7z"/>
	<path class="st0" d="M112.1,6.9c0.3,1.2,1.1,2,2.6,2c1.7,0,2.4-0.9,2.4-1.9s-0.5-1.7-2.5-2.2c-2-0.5-2.8-1.1-2.8-2.5
		c0-1.2,0.9-2.4,2.9-2.4s2.9,1.2,3,2.4H117c-0.2-1-0.9-1.7-2.3-1.7c-1.3,0-2.1,0.6-2.1,1.7s0.6,1.4,2.3,1.8c2.6,0.7,3,1.7,3,2.8
		c0,1.4-1,2.6-3.2,2.6c-2.3,0-3.2-1.4-3.4-2.6L112.1,6.9L112.1,6.9z"/>
</g>
<path class="st1" d="M22,12.7c-7.6,0-8.1,8.1-8.1,10.4l0,9.9H8.4l0-9.9c0-7.5,3.7-15.2,13.6-15.2h3.4v4.8H22z"/>
<path class="st1" d="M25.4,1.9v5.2H0.7V1.9H25.4z"/>
<path class="st1" d="M60.3,10.1c1.9-2.7,4.6-4.1,8.2-4.1c2.6,0,4.8,0.8,6.6,2.4c1.8,1.6,2.7,4,2.7,7.1v17.3h-5.8V17.2
	c0-2.2-0.5-3.9-1.4-4.8c-0.9-1-2.2-1.5-4.1-1.5c-1.1,0-2.1,0.3-3,0.9c-0.9,0.6-1.7,1.5-2.2,2.6c-0.6,1.2-0.8,2.5-0.8,4.2v14.3h-5.9
	V6.7h5.6v3.5H60.3z"/>
<path class="st1" d="M51.7,25.2c-0.7,2.2-2,4.2-4,5.9c-2,1.6-4.8,2.4-8.4,2.4c-2.5,0-4.7-0.6-6.6-1.7c-1.9-1.2-3.4-2.8-4.5-4.8
	c-1-2-1.5-4.4-1.5-7.1c0-2.8,0.5-5.2,1.5-7.2c1-2.1,2.5-3.7,4.4-4.8c1.9-1.2,4.1-1.7,6.7-1.7c2.5,0,4.7,0.5,6.5,1.6
	c1.9,1.1,3.4,2.6,4.5,4.7c1.1,2,1.6,4.4,1.6,7.2c0,0.7,0,1.2,0,1.6H32.6c0.1,2.3,0.7,4.2,1.9,5.7c1.2,1.5,2.8,2.2,4.8,2.2
	c1.9,0,3.3-0.4,4.3-1.3c1-0.9,1.7-2,2.1-3.2L51.7,25.2z M39.3,10.5c-2,0-3.5,0.6-4.6,1.9c-1.1,1.2-1.8,2.8-2,4.6H46
	c-0.2-1.9-0.9-3.4-2-4.6C42.9,11.1,41.3,10.5,39.3,10.5z"/>
</svg>
